<svg version="1.1" id="Layer_1" xmlns="http://www.w3.org/2000/svg" xmlns:xlink="http://www.w3.org/1999/xlink" x="0px"
	y="0px" viewBox="0 0 4000 4000" style="enable-background:new 0 0 4000 4000;" xml:space="preserve">
	<g>
		<g>
			<defs>
				<polygon id="SVGID_1_"
					points="2252.87,982.403 1999.997,1420.388 2419.365,2146.757 3195.594,2615.247 			" />
			</defs>
			<clipPath id="SVGID_00000110441600316345527240000001414779812091573417_">
				<use xlink:href="#SVGID_1_" style="overflow:visible;" />
			</clipPath>

			<linearGradient id="SVGID_00000160882077555502710430000014385934972217611180_"
				gradientUnits="userSpaceOnUse" x1="2039.9121" y1="3175.2544" x2="3487.0779" y2="-395.2441">
				<stop offset="0" style="stop-color:#0000FF" />
				<stop offset="1" style="stop-color:#00FFFF" />
			</linearGradient>

			<rect x="1999.997" y="982.403"
				style="clip-path:url(#SVGID_00000110441600316345527240000001414779812091573417_);fill:url(#SVGID_00000160882077555502710430000014385934972217611180_);"
				width="1195.597" height="1632.844" />
		</g>
		<g>
			<defs>
				<path id="SVGID_00000146490131607970800800000010031161931339902606_" d="M2774.785,2762.357h505.745l-150.549-260.755
				c-191.451-278.003-484.554-480.59-825.651-554.098c-91.972-19.818-187.427-30.255-285.327-30.255h-2.49h-165.291
				l-254.195,440.287h421.977C2334.315,2357.536,2612.078,2518.313,2774.785,2762.357" />
			</defs>
			<clipPath id="SVGID_00000101793098487774947660000003838863914159960704_">
				<use xlink:href="#SVGID_00000146490131607970800800000010031161931339902606_"
					style="overflow:visible;" />
			</clipPath>

			<linearGradient id="SVGID_00000096060708941324206250000001076258192823645321_"
				gradientUnits="userSpaceOnUse" x1="4615.0898" y1="4435.0078" x2="777.9203" y2="740.8422">
				<stop offset="0" style="stop-color:#0000FF" />
				<stop offset="1" style="stop-color:#00FFFF" />
			</linearGradient>

			<rect x="1597.027" y="1917.249"
				style="clip-path:url(#SVGID_00000101793098487774947660000003838863914159960704_);fill:url(#SVGID_00000096060708941324206250000001076258192823645321_);"
				width="1683.504" height="845.108" />
		</g>
		<g>
			<defs>
				<path id="SVGID_00000099656048768316750140000015991848279789383854_" d="M1999.997,1420.388l9.176-15.892
				c58.927-95.207,167.611-148.941,280.009-136.843c68.795,7.403,130.998,38.604,177.454,85.908
				c-155.424-269.815-310.938-539.465-466.638-809.145l-252.869,437.986L719.472,2762.357h505.741L1999.997,1420.388z" />
			</defs>
			<clipPath id="SVGID_00000046321149854463476230000017098109835512139912_">
				<use xlink:href="#SVGID_00000099656048768316750140000015991848279789383854_"
					style="overflow:visible;" />
			</clipPath>

			<linearGradient id="SVGID_00000163032231341818434600000014910534188455168940_"
				gradientUnits="userSpaceOnUse" x1="1071.1599" y1="4854.0591" x2="1928.1624" y2="-401.7729">
				<stop offset="0" style="stop-color:#0000FF" />
				<stop offset="1" style="stop-color:#00FFFF" />
			</linearGradient>

			<rect x="719.472" y="544.417"
				style="clip-path:url(#SVGID_00000046321149854463476230000017098109835512139912_);fill:url(#SVGID_00000163032231341818434600000014910534188455168940_);"
				width="1747.163" height="2217.941" />
		</g>

	</g>
</svg>