<svg xmlns="http://www.w3.org/2000/svg" width="200" height="200" viewBox="250 20 200 200">
  <g xmlns="http://www.w3.org/2000/svg">
    <path style="fill-rule:evenodd;clip-rule:evenodd;fill: #447ccf;" d="M417.234,145.613c-10.56,20.438-31.888,34.421-56.457,34.421       c-35.048,0-63.503-28.455-63.503-63.503c0-35.048,28.455-63.503,63.503-63.503c24.568,0,45.897,13.982,56.457,34.42       l-25.961,18.394c-4.415-12.585-16.409-21.621-30.495-21.621c-17.832,0-32.308,14.477-32.308,32.309       c0,17.831,14.476,32.308,32.308,32.308c14.087,0,26.08-9.035,30.495-21.619L417.234,145.613z"/>
    <g>
      <defs>
        <path id="SVGID_00000028317377729606200230000007068334373079760260_" d="M417.234,145.613           c-10.56,20.438-31.888,34.421-56.457,34.421c-35.048,0-63.503-28.455-63.503-63.503c0-35.048,28.455-63.503,63.503-63.503           c24.568,0,45.897,13.982,56.457,34.42l-25.961,18.394c-4.415-12.585-16.409-21.621-30.495-21.621           c-17.832,0-32.308,14.477-32.308,32.309c0,17.831,14.476,32.308,32.308,32.308c14.087,0,26.08-9.035,30.495-21.619           L417.234,145.613z"/>
      </defs>
      <clipPath id="SVGID_00000145059799570764701780000017065238881480905106_">
        <use xmlns:xlink="http://www.w3.org/1999/xlink" xlink:href="#SVGID_00000028317377729606200230000007068334373079760260_" style="overflow:visible;"/>
      </clipPath>
      <path style="clip-path:url(#SVGID_00000145059799570764701780000017065238881480905106_);fill-rule:evenodd;clip-rule:evenodd;fill: #ffffff;" d="M356.476,84.316c-12.302-0.279-56.136,31.543-34.587,82.797c-15.06-8.733-56.411,3.745-28.844-66.776L285.9,81.51         l59.063-45.819l84.265,31.471l-35.947,45.527C393.282,112.689,371.306,84.652,356.476,84.316z"/>
      <path style="clip-path:url(#SVGID_00000145059799570764701780000017065238881480905106_);fill-rule:evenodd;clip-rule:evenodd;fill: #66aaff;" d="M357.099,86.446c-12.249-1.172-57.96,23.717-40.192,76.401c-14.386-9.805-56.415,1.232-23.797-67.101l-5.758-19.295         l62.236-41.407l81.756,37.51l-39.16,42.795C392.184,115.349,371.866,87.858,357.099,86.446z"/>
    </g>
  </g>
</svg>